<?xml version="1.0" standalone="no"?>
<!DOCTYPE svg PUBLIC "-//W3C//DTD SVG 20010904//EN"
 "http://www.w3.org/TR/2001/REC-SVG-20010904/DTD/svg10.dtd">
<svg version="1.0" xmlns="http://www.w3.org/2000/svg"
 width="512.000000pt" height="512.000000pt" viewBox="0 0 512.000000 512.000000"
 preserveAspectRatio="xMidYMid meet">
<metadata>
Created by potrace 1.14, written by Peter Selinger 2001-2017
</metadata>
<g transform="translate(0.000000,512.000000) scale(0.100000,-0.100000)"
fill="#000000" stroke="none">
<path d="M1450 5104 c-36 -7 -78 -19 -95 -25 -44 -18 -169 -80 -175 -88 -3 -3
-21 -18 -41 -33 -108 -80 -200 -212 -248 -354 -53 -158 -44 -360 22 -519 72
-173 234 -333 405 -400 l42 -17 1 -342 c2 -579 5 -679 17 -741 7 -33 14 -69
16 -80 2 -11 11 -45 20 -76 12 -40 14 -68 8 -95 -30 -142 35 -277 175 -363 27
-17 61 -46 74 -65 24 -34 25 -38 22 -196 -3 -147 -5 -164 -25 -190 -19 -27
-127 -110 -142 -110 -4 0 -23 -11 -44 -24 -20 -14 -82 -43 -137 -66 -55 -23
-159 -68 -230 -100 -72 -32 -192 -78 -268 -104 -75 -25 -156 -58 -179 -73
-108 -68 -199 -197 -228 -322 -12 -51 -22 -658 -12 -703 4 -17 114 -18 2132
-18 2018 0 2128 1 2132 18 2 9 3 159 2 332 0 218 -5 332 -14 370 -31 134 -121
258 -235 325 -33 20 -109 51 -170 70 -60 19 -119 39 -130 44 -107 48 -187 83
-290 126 -176 74 -244 109 -325 166 -99 69 -101 74 -103 262 -1 158 -1 163 23
195 14 18 47 47 75 64 137 84 204 224 173 361 -5 25 -4 53 3 80 17 58 17 59
23 87 32 143 32 146 35 811 l1 326 62 17 c411 114 647 552 512 953 -103 308
-375 506 -699 507 -121 1 -174 -7 -259 -39 -97 -37 -179 -85 -245 -144 -18
-17 -36 -31 -38 -31 -3 0 -28 21 -56 46 -57 50 -224 135 -302 154 -27 6 -95
14 -150 16 -162 6 -299 -33 -437 -122 l-70 -46 -42 30 c-62 45 -158 91 -234
113 -88 26 -264 32 -352 13z"/>
</g>
</svg>
